<?xml version="1.0" standalone="no"?>
<!DOCTYPE svg PUBLIC "-//W3C//DTD SVG 20010904//EN"
 "http://www.w3.org/TR/2001/REC-SVG-20010904/DTD/svg10.dtd">
<svg version="1.0" xmlns="http://www.w3.org/2000/svg"
 width="400.000000pt" height="300.000000pt" viewBox="0 0 400.000000 300.000000"
 preserveAspectRatio="xMidYMid meet">

<g transform="translate(0.000000,300.000000) scale(0.100000,-0.100000)"
fill="#000000" stroke="none">
<path d="M2212 1934 l-22 -15 0 -368 c0 -344 1 -369 18 -384 25 -23 68 -21 92
3 19 19 20 33 20 380 0 347 -1 361 -20 380 -24 24 -57 26 -88 4z"/>
<path d="M2412 1794 c-21 -14 -22 -23 -22 -133 0 -134 6 -146 68 -144 54 2 62
20 62 145 0 95 -2 110 -20 128 -24 24 -57 26 -88 4z"/>
<path d="M2027 1733 c-10 -3 -22 -16 -28 -29 -10 -28 -12 -186 -3 -221 9 -32
55 -48 91 -31 l28 13 3 120 c3 113 1 121 -19 138 -21 17 -37 19 -72 10z"/>
<path d="M836 1626 c-80 -30 -135 -111 -143 -211 -9 -109 29 -191 107 -235 38
-21 58 -25 125 -25 93 0 146 22 183 75 28 42 28 75 0 94 -33 23 -42 20 -98
-29 -53 -47 -68 -52 -118 -34 -38 13 -61 46 -68 102 -13 94 39 177 113 177 27
0 43 -8 72 -37 25 -25 45 -36 65 -36 30 0 56 24 56 52 0 30 -38 78 -76 96 -50
25 -165 30 -218 11z"/>
<path d="M1293 1623 c-80 -28 -119 -106 -69 -138 22 -15 27 -15 53 -1 15 9 40
26 55 38 52 41 158 20 158 -32 0 -29 -24 -40 -124 -55 -145 -22 -186 -50 -194
-133 -6 -66 17 -108 71 -133 70 -31 152 -22 217 26 l34 25 12 -29 c17 -41 72
-56 106 -28 14 10 15 36 9 205 l-6 194 -32 28 c-18 16 -49 34 -70 39 -54 15
-170 12 -220 -6z m186 -325 c-31 -76 -179 -78 -179 -2 0 32 33 51 109 63 35 6
66 13 70 17 12 12 12 -49 0 -78z"/>
<path d="M1825 1628 c-92 -32 -140 -111 -138 -229 2 -127 52 -206 147 -234
100 -30 190 -14 248 45 47 46 52 91 13 116 -31 20 -57 12 -89 -31 -33 -43 -79
-54 -129 -30 -44 21 -67 67 -67 135 0 67 21 105 65 120 56 19 74 75 33 104
-26 18 -41 19 -83 4z"/>
<path d="M2730 1630 c-12 -7 -16 -41 -20 -160 l-5 -152 -33 -29 c-34 -30 -77
-38 -112 -19 -22 12 -40 67 -40 122 0 42 -19 58 -69 58 -40 0 -61 -32 -61 -93
0 -78 19 -134 56 -167 64 -56 169 -53 235 7 32 29 39 32 39 16 0 -33 29 -63
60 -63 55 0 60 21 60 251 0 187 -2 207 -18 222 -20 19 -68 22 -92 7z"/>
<path d="M2999 1631 c-69 -23 -109 -72 -109 -135 0 -80 37 -112 170 -146 46
-12 92 -26 102 -31 21 -11 24 -42 6 -57 -44 -34 -109 -25 -165 23 -62 52 -113
44 -113 -18 0 -35 44 -80 98 -99 20 -7 73 -13 117 -13 123 0 190 45 202 135
11 80 -41 127 -177 159 -88 21 -117 39 -107 65 16 42 98 42 154 0 42 -32 78
-31 100 2 15 23 15 29 2 52 -24 42 -82 65 -173 69 -45 1 -93 -1 -107 -6z"/>
</g>
</svg>
